<!--?xml version="1.0" standalone="no"?-->
              <svg id="sw-js-blob-svg" viewBox="0 0 100 100" xmlns="http://www.w3.org/2000/svg" version="1.1">
                    <defs> 
                        <linearGradient id="sw-gradient" x1="0" x2="1" y1="1" y2="0">
                            <stop id="stop1" stop-color="rgba(44.719, 144.592, 255, 1)" offset="0%"></stop>
                            <stop id="stop2" stop-color="rgba(42.336, 126.279, 197.013, 1)" offset="100%"></stop>
                        </linearGradient>
                    </defs>
                <path fill="url(#sw-gradient)" d="M20.1,-27.9C26.7,-22.9,33.1,-17.9,37.2,-10.7C41.4,-3.6,43.3,5.5,40.1,12.2C36.8,18.9,28.3,23.1,20.8,28.8C13.3,34.5,6.6,41.5,-0.6,42.4C-7.8,43.2,-15.6,37.7,-22.2,31.8C-28.7,25.8,-34,19.3,-37.6,11.5C-41.1,3.6,-43,-5.5,-40.4,-13C-37.8,-20.5,-30.7,-26.5,-23.2,-31.2C-15.7,-35.9,-7.9,-39.4,-0.5,-38.6C6.8,-37.9,13.5,-32.9,20.1,-27.9Z" width="100%" height="100%" transform="translate(50 50)" stroke-width="0" style="transition: all 0.3s ease 0s;"></path>
              </svg>