<!--?xml version="1.0" standalone="no"?-->
              <svg id="sw-js-blob-svg" viewBox="0 0 100 100" xmlns="http://www.w3.org/2000/svg" version="1.1">
                    <defs> 
                        <linearGradient id="sw-gradient" x1="0" x2="1" y1="1" y2="0">
                            <stop id="stop1" stop-color="rgba(44.719, 144.592, 255, 1)" offset="0%"></stop>
                            <stop id="stop2" stop-color="rgba(42.336, 126.279, 197.013, 1)" offset="100%"></stop>
                        </linearGradient>
                    </defs>
                <path fill="url(#sw-gradient)" d="M15.4,-22C22.5,-16.1,32.5,-15,37.1,-9.9C41.8,-4.8,41,4.1,36,9.3C31,14.4,21.7,15.7,14.9,17.9C8.2,20.2,4.1,23.3,-0.9,24.5C-5.8,25.7,-11.7,24.9,-15.8,21.8C-19.9,18.7,-22.4,13.4,-23.1,8.2C-23.9,3,-23,-2.1,-22.4,-8.3C-21.8,-14.5,-21.5,-21.8,-17.8,-28.9C-14.1,-35.9,-7.1,-42.6,-1.4,-40.6C4.2,-38.7,8.4,-28,15.4,-22Z" width="100%" height="100%" transform="translate(50 50)" stroke-width="0" style="transition: all 0.3s ease 0s;"></path>
              </svg>